<svg width="50" height="50" viewBox="0 0 50 50" fill="none" xmlns="http://www.w3.org/2000/svg">
<path d="M38.0723 32.9283V31.3658V32.9283ZM44.6127 24.5641L43.0849 24.8915L43.0849 24.8915L44.6127 24.5641ZM44.6357 24.6715L46.1635 24.3441L46.1635 24.344L44.6357 24.6715ZM44.6357 27.6113L43.1079 27.2839L43.1079 27.2839L44.6357 27.6113ZM38.1818 19.3545V17.792V19.3545ZM36.041 32.9283L34.5287 32.5356L34.021 34.4908H36.041V32.9283ZM37.3306 19.3545V17.792H35.6638L35.7714 19.4553L37.3306 19.3545ZM38.0723 31.3658H37.0536V34.4908H38.0723V31.3658ZM43.0849 24.8915L43.1079 24.9989L46.1635 24.344L46.1405 24.2367L43.0849 24.8915ZM43.1079 24.9989C43.2693 25.752 43.2693 26.5308 43.1079 27.2839L46.1635 27.9387C46.4174 26.754 46.4174 25.5288 46.1635 24.3441L43.1079 24.9989ZM38.0723 34.4908C41.9759 34.4908 45.345 31.7582 46.1635 27.9387L43.1079 27.2839C42.597 29.6679 40.4969 31.3658 38.0723 31.3658L38.0723 34.4908ZM38.1818 20.917C40.5425 20.917 42.5874 22.5702 43.0849 24.8915L46.1405 24.2367C45.3354 20.4799 42.0215 17.792 38.1818 17.792L38.1818 20.917ZM37.0536 31.3658H36.041V34.4908H37.0536V31.3658ZM35.7714 19.4553C36.0558 23.8534 35.6364 28.2695 34.5287 32.5356L37.5534 33.321C38.7448 28.7329 39.1958 23.9835 38.8899 19.2536L35.7714 19.4553ZM38.1818 17.792H37.3306V20.917H38.1818V17.792Z" fill="#FEA609"/>
<path d="M15.1527 6.71384L14.9167 5.16926L14.9167 5.16926L15.1527 6.71384ZM27.3661 6.71384L27.602 5.16926L27.602 5.16926L27.3661 6.71384ZM26.7368 43.2676L27.0099 44.806L26.7368 43.2676ZM15.7819 43.2676L16.0551 41.7291L16.055 41.7291L15.7819 43.2676ZM7.39321 36.0438L8.88621 35.583L7.39321 36.0438ZM5.5403 15.8465L3.98837 15.6651L3.98837 15.6651L5.5403 15.8465ZM37.1296 17.1394L35.5776 17.3208L35.5776 17.3208L37.1296 17.1394ZM35.5093 34.8002L34.0163 34.3394L34.0163 34.3394L35.5093 34.8002ZM5.61578 15.2007L7.16772 15.3821L7.16772 15.3821L5.61578 15.2007ZM13.5577 6.95752L13.7937 8.5021L13.7937 8.5021L13.5577 6.95752ZM15.5026 43.218L15.2295 44.7564L15.2295 44.7564L15.5026 43.218ZM35.2094 35.7721L36.7024 36.2329L36.7024 36.2329L35.2094 35.7721ZM36.9559 15.6535L38.5078 15.4721L38.5078 15.4721L36.9559 15.6535ZM28.5115 6.88885L28.2755 8.43343L28.2755 8.43343L28.5115 6.88885ZM36.0409 32.9284L34.5286 32.5357L36.0409 32.9284ZM37.3305 19.3546L35.7713 19.4555L37.3305 19.3546ZM35.4039 15.8349L35.5776 17.3208L38.6815 16.958L38.5078 15.4721L35.4039 15.8349ZM34.0163 34.3394L33.7164 35.3113L36.7024 36.2329L37.0024 35.261L34.0163 34.3394ZM7.09224 16.0279L7.16772 15.3821L4.06385 15.0193L3.98837 15.6651L7.09224 16.0279ZM16.055 41.7291L15.7757 41.6795L15.2295 44.7564L15.5088 44.806L16.055 41.7291ZM13.7937 8.5021L15.3887 8.25841L14.9167 5.16926L13.3218 5.41294L13.7937 8.5021ZM27.1301 8.25842L28.2755 8.43343L28.7475 5.34428L27.602 5.16926L27.1301 8.25842ZM15.3887 8.25841C19.28 7.66386 23.2387 7.66386 27.1301 8.25842L27.602 5.16926C23.3979 4.52691 19.1209 4.52691 14.9167 5.16926L15.3887 8.25841ZM26.4637 41.7291C23.0209 42.3403 19.4978 42.3403 16.0551 41.7291L15.5088 44.806C19.3129 45.4813 23.2058 45.4813 27.0099 44.806L26.4637 41.7291ZM8.88621 35.583C6.93515 29.2614 6.32406 22.6004 7.09224 16.0279L3.98837 15.6651C3.16974 22.6692 3.82094 29.7676 5.9002 36.5046L8.88621 35.583ZM7.16772 15.3821C7.58041 11.8511 10.2953 9.03662 13.7937 8.5021L13.3218 5.41294C8.42715 6.16078 4.63931 10.0957 4.06385 15.0193L7.16772 15.3821ZM5.9002 36.5046C7.22212 40.7877 10.8216 43.9739 15.2295 44.7564L15.7758 41.6795C12.524 41.1022 9.86388 38.7507 8.88621 35.583L5.9002 36.5046ZM33.7164 35.3113C32.6872 38.6459 29.8869 41.1214 26.4637 41.7291L27.0099 44.806C31.5894 43.993 35.329 40.6829 36.7024 36.2329L33.7164 35.3113ZM38.5078 15.4721C37.9011 10.281 33.9076 6.13268 28.7475 5.34428L28.2755 8.43343C32.0395 9.00852 34.96 12.0364 35.4039 15.8349L38.5078 15.4721ZM34.5286 32.5357C34.3716 33.1401 34.2009 33.7415 34.0163 34.3394L37.0024 35.261C37.2008 34.6179 37.3845 33.9712 37.5533 33.3211L34.5286 32.5357ZM35.5776 17.3208C35.6607 18.0314 35.7252 18.7432 35.7713 19.4555L38.8897 19.2538C38.8402 18.4878 38.7708 17.7223 38.6815 16.958L35.5776 17.3208ZM35.7713 19.4555C36.0557 23.8535 35.6363 28.2696 34.5286 32.5357L37.5533 33.3211C38.7447 28.733 39.1957 23.9836 38.8897 19.2538L35.7713 19.4555Z" fill="white"/>
<path d="M12.5 23.9585V25.55C12.5 28.6136 13.2133 31.635 14.5833 34.3752" stroke="#FEA609" stroke-width="3.125" stroke-linecap="round"/>
</svg>
