<svg width="50" height="50" viewBox="0 0 50 50" fill="none" xmlns="http://www.w3.org/2000/svg">
<path d="M4.16699 35.46L4.16699 27.1699L4.21777 26.4124C4.87124 16.6636 11.8169 8.5666 21.1793 6.63938C23.7014 6.12021 26.2993 6.12021 28.8214 6.63938C38.1837 8.5666 45.1294 16.6636 45.7829 26.4124L45.8337 27.1699V35.46M32.4786 37.0857C32.126 35.2298 32.126 33.3217 32.4786 31.4657C33.0454 28.4825 35.2046 26.0797 38.0624 25.252L38.6685 25.0765C39.2986 24.894 39.9503 24.8014 40.6051 24.8014C43.4928 24.8014 45.8336 27.1967 45.8336 30.1514V38.4001C45.8336 41.3547 43.4928 43.75 40.6051 43.75C39.9503 43.75 39.2986 43.6574 38.6685 43.475L38.0624 43.2994C35.2046 42.4718 33.0454 40.0689 32.4786 37.0857ZM17.522 37.0858C17.8746 35.2298 17.8746 33.3217 17.522 31.4657C16.9553 28.4825 14.796 26.0797 11.9382 25.252L11.3321 25.0765C10.702 24.894 10.0503 24.8014 9.3955 24.8014C6.50787 24.8014 4.16699 27.1967 4.167 30.1514L4.167 38.4001C4.16699 41.3547 6.50787 43.75 9.3955 43.75C10.0503 43.75 10.702 43.6574 11.3321 43.475L11.9382 43.2994C14.796 42.4718 16.9553 40.0689 17.522 37.0858Z" stroke="white" stroke-width="3.125"/>
<path d="M45.8336 38.4004C45.8336 41.3551 43.4928 43.7503 40.6051 43.7503C39.9503 43.7503 39.2986 43.6578 38.6685 43.4753L38.0624 43.2997C35.2046 42.4721 33.0454 40.0692 32.4786 37.0861C32.126 35.2301 32.126 33.322 32.4786 31.466C33.0454 28.4829 35.2046 26.08 38.0624 25.2524L38.6685 25.0768C39.2986 24.8943 39.9503 24.8018 40.6051 24.8018C43.4928 24.8018 45.8336 27.197 45.8336 30.1517V38.4004Z" stroke="#FEA609" stroke-width="3.125"/>
<path d="M4.167 38.4004C4.16699 41.3551 6.50787 43.7503 9.3955 43.7503C10.0503 43.7503 10.702 43.6578 11.3321 43.4753L11.9382 43.2997C14.796 42.4721 16.9553 40.0692 17.522 37.0861C17.8746 35.2301 17.8746 33.322 17.522 31.466C16.9553 28.4829 14.796 26.08 11.9382 25.2523L11.3321 25.0768C10.702 24.8943 10.0503 24.8018 9.3955 24.8018C6.50787 24.8018 4.16699 27.197 4.167 30.1517L4.167 38.4004Z" stroke="#FEA609" stroke-width="3.125"/>
</svg>
