<svg width="50" height="50" viewBox="0 0 50 50" fill="none" xmlns="http://www.w3.org/2000/svg">
<path d="M6.86877 10.9037C7.3384 8.90165 8.90165 7.3384 10.9037 6.86877V6.86877C12.6388 6.46178 14.4445 6.46178 16.1796 6.86877V6.86877C18.1817 7.3384 19.7449 8.90165 20.2146 10.9037V10.9037C20.6216 12.6388 20.6216 14.4445 20.2146 16.1796V16.1796C19.7449 18.1817 18.1817 19.7449 16.1796 20.2146V20.2146C14.4445 20.6216 12.6388 20.6216 10.9037 20.2146V20.2146C8.90166 19.7449 7.3384 18.1817 6.86877 16.1796V16.1796C6.46178 14.4445 6.46178 12.6388 6.86877 10.9037V10.9037Z" stroke="white" stroke-width="3.125"/>
<path d="M6.86877 33.8205C7.3384 31.8184 8.90165 30.2551 10.9037 29.7855V29.7855C12.6388 29.3785 14.4445 29.3785 16.1796 29.7855V29.7855C18.1817 30.2551 19.7449 31.8184 20.2146 33.8205V33.8205C20.6216 35.5556 20.6216 37.3613 20.2146 39.0963V39.0963C19.7449 41.0984 18.1817 42.6617 16.1796 43.1313V43.1313C14.4445 43.5383 12.6388 43.5383 10.9037 43.1313V43.1313C8.90166 42.6617 7.3384 41.0984 6.86877 39.0963V39.0963C6.46178 37.3613 6.46178 35.5556 6.86877 33.8205V33.8205Z" stroke="#FEA609" stroke-width="3.125"/>
<path d="M29.7858 10.9037C30.2554 8.90165 31.8186 7.3384 33.8207 6.86877V6.86877C35.5558 6.46178 37.3615 6.46178 39.0966 6.86877V6.86877C41.0987 7.3384 42.6619 8.90165 43.1316 10.9037V10.9037C43.5385 12.6388 43.5385 14.4445 43.1316 16.1796V16.1796C42.6619 18.1817 41.0987 19.7449 39.0966 20.2146V20.2146C37.3615 20.6216 35.5558 20.6216 33.8207 20.2146V20.2146C31.8186 19.7449 30.2554 18.1817 29.7858 16.1796V16.1796C29.3788 14.4445 29.3788 12.6388 29.7858 10.9037V10.9037Z" stroke="white" stroke-width="3.125"/>
<path d="M29.7858 33.8205C30.2554 31.8184 31.8186 30.2551 33.8207 29.7855V29.7855C35.5558 29.3785 37.3615 29.3785 39.0966 29.7855V29.7855C41.0987 30.2551 42.6619 31.8184 43.1316 33.8205V33.8205C43.5385 35.5556 43.5385 37.3613 43.1316 39.0963V39.0963C42.6619 41.0984 41.0987 42.6617 39.0966 43.1313V43.1313C37.3615 43.5383 35.5558 43.5383 33.8207 43.1313V43.1313C31.8186 42.6617 30.2554 41.0984 29.7858 39.0963V39.0963C29.3788 37.3613 29.3788 35.5556 29.7858 33.8205V33.8205Z" stroke="white" stroke-width="3.125"/>
</svg>
