<svg width="36" height="36" viewBox="0 0 36 36" fill="none" xmlns="http://www.w3.org/2000/svg">
<path d="M30.7258 32.2731C31.153 32.7003 31.8455 32.7003 32.2726 32.2731C32.6998 31.846 32.6998 31.1535 32.2726 30.7263L30.7258 32.2731ZM25.2286 26.7758L30.7258 32.2731L32.2726 30.7263L26.7754 25.229L25.2286 26.7758Z" fill="white"/>
<path d="M4.97359 12.486C5.84796 8.75845 8.75846 5.84795 12.486 4.97359C15.178 4.34214 17.9796 4.34214 20.6716 4.97359C24.3991 5.84795 27.3096 8.75846 28.184 12.486C28.8154 15.178 28.8154 17.9796 28.184 20.6716C27.3096 24.3991 24.3991 27.3096 20.6716 28.184C17.9796 28.8154 15.178 28.8154 12.486 28.184C8.75846 27.3096 5.84796 24.3991 4.97359 20.6716C4.34214 17.9796 4.34214 15.178 4.97359 12.486Z" stroke="white" stroke-width="2.1875" stroke-linecap="round"/>
<path d="M4.97359 12.486C4.34214 15.178 4.34214 17.9796 4.97359 20.6716C5.84796 24.3991 8.75846 27.3096 12.486 28.184C15.178 28.8154 17.9796 28.8154 20.6716 28.184C24.3991 27.3096 27.3096 24.3991 28.184 20.6716C28.8154 17.9796 28.8154 15.178 28.184 12.486C27.3096 8.75846 24.3991 5.84795 20.6716 4.97359C17.9796 4.34214 15.178 4.34214 12.486 4.97359" stroke="white" stroke-width="2.1875" stroke-linecap="round"/>
</svg>
