<svg width="50" height="50" viewBox="0 0 50 50" fill="none" xmlns="http://www.w3.org/2000/svg">
<path d="M11.4587 18.75H7.29199" stroke="#FEA609" stroke-width="3.125" stroke-linecap="round"/>
<path d="M10.4163 31.25L8.33301 31.25" stroke="#FEA609" stroke-width="3.125" stroke-linecap="round"/>
<path d="M8.33366 25H4.16699" stroke="#FEA609" stroke-width="3.125" stroke-linecap="round"/>
<path d="M25.0846 26.5935C25.9475 26.5935 26.6471 25.894 26.6471 25.031C26.6471 24.1681 25.9475 23.4685 25.0846 23.4685V26.5935ZM19.3076 26.5935H25.0846V23.4685H19.3076V26.5935Z" fill="#FEA609"/>
<path d="M42.7903 19.7434L24.6605 10.0179C20.2977 7.6775 15.4559 12.1139 16.9405 17.0915L19.2232 24.7448C19.2789 24.9316 19.2788 25.1306 19.2229 25.3174L16.9519 32.9024C15.4625 37.877 20.2974 42.3189 24.6625 39.9862L42.7827 30.3028C46.8472 28.1307 46.8516 21.9221 42.7903 19.7434Z" stroke="white" stroke-width="3.125"/>
</svg>
