<svg width="50" height="50" viewBox="0 0 50 50" fill="none" xmlns="http://www.w3.org/2000/svg">
<path d="M33.0734 40.5987L33.4495 40.3386C34.6266 39.5247 35.2152 39.1177 35.7418 38.6813C38.6027 36.3101 40.5242 33.005 41.1638 29.3553C41.2815 28.6836 41.3426 27.9731 41.465 26.552L41.5282 25.8171C41.7307 23.4649 41.7105 21.099 41.4679 18.7505L41.3929 18.0237C40.9683 13.914 38.4453 10.3119 34.7172 8.49298C28.5875 5.50234 21.4119 5.50234 15.2822 8.49298C11.554 10.3119 9.03101 13.914 8.60649 18.0237L8.53142 18.7505C8.28883 21.099 8.26865 23.4649 8.47112 25.8171L8.53438 26.552C8.6567 27.9731 8.71787 28.6836 8.83557 29.3553C9.47511 33.005 11.3967 36.3101 14.2576 38.6813C14.7841 39.1176 15.3728 39.5247 16.5498 40.3386L16.926 40.5987C18.5262 41.7053 19.3264 42.2586 20.1283 42.6431C23.2065 44.119 26.7928 44.119 29.871 42.6431C30.673 42.2586 31.4731 41.7053 33.0734 40.5987Z" stroke="#FEA609" stroke-width="3.125"/>
<path d="M41.465 26.552L41.5282 25.8171C41.7307 23.4649 41.7105 21.099 41.4679 18.7505L41.3929 18.0237C40.9683 13.914 38.4453 10.3119 34.7172 8.49298C28.5875 5.50234 21.4119 5.50234 15.2822 8.49298C11.554 10.3119 9.03101 13.914 8.60649 18.0237L8.53142 18.7505C8.28883 21.099 8.26865 23.4649 8.47112 25.8171L8.53438 26.552C8.6567 27.9731 8.71787 28.6836 8.83557 29.3553C9.47511 33.005 11.3967 36.3101 14.2576 38.6813C14.7841 39.1176 15.3728 39.5247 16.5498 40.3386L16.926 40.5987C18.5262 41.7053 19.3264 42.2586 20.1283 42.6431" stroke="white" stroke-width="3.125" stroke-linecap="round"/>
<path d="M19.2705 24.4793L23.4372 28.646L30.7288 20.8335" stroke="#FEA609" stroke-width="3.125" stroke-linecap="round" stroke-linejoin="round"/>
</svg>
